<svg width="18" height="18" viewBox="0 0 40 40" fill="none" xmlns="http://www.w3.org/2000/svg"><g clip-path="url(#clip0_2059_59643)"><path d="M20.0001 0.466798C15.2388 0.465383 10.6331 2.16266 7.01136 5.25344C3.38956 8.34422 0.989245 12.6257 0.242014 17.328C-0.505217 22.0304 0.449665 26.845 2.93496 30.9063C5.42025 34.9675 9.27289 38.0089 13.8001 39.4835H14.2835C14.5193 39.4981 14.7555 39.4624 14.9765 39.3788C15.1974 39.2952 15.3981 39.1656 15.5652 38.9985C15.7322 38.8314 15.8619 38.6308 15.9455 38.4098C16.0291 38.1888 16.0648 37.9526 16.0501 37.7168V37.3668C16.0501 37.0835 16.0501 36.7001 16.0501 35.5501C16.0338 35.4409 15.9959 35.3361 15.9387 35.2417C15.8814 35.1473 15.806 35.0652 15.7168 35.0001C15.62 34.9218 15.5068 34.8662 15.3857 34.8374C15.2646 34.8085 15.1385 34.8072 15.0168 34.8335C10.5501 35.8001 9.60013 33.0001 9.53346 32.8168C8.97414 31.3353 7.97351 30.0613 6.66679 29.1668C6.5885 29.0991 6.5049 29.0378 6.41679 28.9835C6.61047 28.8792 6.83201 28.8384 7.05013 28.8668C7.46903 28.925 7.86571 29.0907 8.20158 29.3478C8.53746 29.6048 8.80108 29.9444 8.96679 30.3335C9.61155 31.4561 10.6666 32.2849 11.91 32.6455C13.1534 33.0061 14.4881 32.8703 15.6335 32.2668C15.7564 32.2131 15.8645 32.1305 15.9486 32.026C16.0328 31.9216 16.0905 31.7983 16.1168 31.6668C16.1806 30.8959 16.5106 30.1711 17.0501 29.6168C17.1699 29.5104 17.2565 29.3718 17.2995 29.2175C17.3425 29.0631 17.3402 28.8997 17.2927 28.7467C17.2452 28.5937 17.1546 28.4576 17.0318 28.3548C16.909 28.2519 16.7591 28.1867 16.6001 28.1668C12.6501 27.7168 8.61679 26.3335 8.61679 19.5168C8.5835 17.8049 9.21012 16.1459 10.3668 14.8835C10.4733 14.7658 10.544 14.6202 10.5706 14.4637C10.5972 14.3072 10.5785 14.1464 10.5168 14.0001C10.0536 12.706 10.0595 11.2903 10.5335 10.0001C12.0732 10.2731 13.5183 10.9326 14.7335 11.9168C14.8338 11.9877 14.9489 12.0349 15.0701 12.0551C15.1913 12.0753 15.3155 12.0679 15.4335 12.0335C16.9223 11.6296 18.4575 11.4223 20.0001 11.4168C21.5485 11.4181 23.0898 11.6255 24.5835 12.0335C24.6989 12.0653 24.82 12.0714 24.9381 12.0512C25.0562 12.0311 25.1684 11.9852 25.2668 11.9168C26.4838 10.9357 27.9282 10.2765 29.4668 10.0001C29.9205 11.2834 29.9205 12.6835 29.4668 13.9668C29.4051 14.113 29.3864 14.2739 29.413 14.4303C29.4396 14.5868 29.5103 14.7325 29.6168 14.8501C30.7615 16.0999 31.3873 17.7388 31.3668 19.4335C31.3668 26.2501 27.3168 27.6168 23.3501 28.0668C23.1874 28.0837 23.0333 28.1482 22.907 28.2521C22.7807 28.356 22.6877 28.4948 22.6398 28.6512C22.5918 28.8076 22.5909 28.9746 22.6372 29.1315C22.6835 29.2884 22.7749 29.4282 22.9001 29.5335C23.2693 29.9145 23.5514 30.3711 23.7269 30.8718C23.9025 31.3725 23.9672 31.9053 23.9168 32.4335V37.7335C23.9085 37.994 23.9581 38.2532 24.0618 38.4924C24.1655 38.7315 24.3209 38.9448 24.5168 39.1168C24.7662 39.3036 25.0559 39.4295 25.3626 39.4844C25.6693 39.5394 25.9847 39.522 26.2835 39.4335C30.7803 37.9291 34.5964 34.8759 37.0507 30.8187C39.5051 26.7615 40.438 21.9642 39.6832 17.2828C38.9283 12.6015 36.5347 8.34065 32.9295 5.26054C29.3242 2.18044 24.7419 0.481472 20.0001 0.466798Z" fill="#0E061A"></path></g><defs><clipPath id="clip0_2059_59643"><rect width="40" height="40" fill="white"></rect></clipPath></defs></svg>